<?xml version="1.0" encoding="UTF-8" standalone="no"?>
<svg
   xmlns:dc="http://purl.org/dc/elements/1.1/"
   xmlns:cc="http://creativecommons.org/ns#"
   xmlns:rdf="http://www.w3.org/1999/02/22-rdf-syntax-ns#"
   xmlns:svg="http://www.w3.org/2000/svg"
   xmlns="http://www.w3.org/2000/svg"
   xmlns:sodipodi="http://sodipodi.sourceforge.net/DTD/sodipodi-0.dtd"
   xmlns:inkscape="http://www.inkscape.org/namespaces/inkscape"
   width="209.764pt"
   version="1.1"
   viewBox="0 0 209.764 209.764"
   height="209.764pt"
   id="svg5063"
   sodipodi:docname="FSFE_100_FREEDOMS.svg"
   inkscape:version="0.92.4 5da689c313, 2019-01-14">
  <metadata
     id="metadata5067">
    <rdf:RDF>
      <cc:Work
         rdf:about="">
        <dc:format>image/svg+xml</dc:format>
        <dc:type
           rdf:resource="http://purl.org/dc/dcmitype/StillImage" />
      </cc:Work>
    </rdf:RDF>
  </metadata>
  <sodipodi:namedview
     pagecolor="#ffffff"
     bordercolor="#666666"
     borderopacity="1"
     objecttolerance="10"
     gridtolerance="10"
     guidetolerance="10"
     inkscape:pageopacity="0"
     inkscape:pageshadow="2"
     inkscape:window-width="1366"
     inkscape:window-height="746"
     id="namedview5065"
     showgrid="false"
     inkscape:zoom="1.7991639"
     inkscape:cx="139.84275"
     inkscape:cy="139.8426"
     inkscape:window-x="0"
     inkscape:window-y="22"
     inkscape:window-maximized="0"
     inkscape:current-layer="Background" />
  <title
     id="title4985">fsfe – 100 FREEDOMS – 74x74</title>
  <defs
     id="defs4990">
    <clipPath
       id="Clip0">
      <path
         d="M0 0 L181.417 0 L181.417 167.245 L0 167.245 L0 0 Z"
         id="path4987" />
    </clipPath>
  </defs>
  <g
     inkscape:groupmode="layer"
     id="Background"
     inkscape:label="Background">
    <path
       transform="translate(-8.50394, -8.50394)"
       d="M0 0 L226.772 0 L226.772 226.772 L0 226.772 L0 0 Z"
       id=" rect7881"
       style="fill:#ffffff;fill-rule:evenodd;stroke:none" />
    <g
       transform="translate(17.0078, 21.2596) scale(1, 1)"
       id="g5231"
       clip-rule="evenodd"
       style="fill:none; stroke:none"
       clip-path="url(#Clip0)">
      <path
         transform="translate(0, 34.9355)"
         d="M1.67702 11.7392 L1.67702 10.0621 L0 10.0621 L0 1.67702 L1.67702 1.67702 L1.67702 0 L8.38511 0 L8.38511 1.67702 L10.0621 1.67702 L10.0621 10.0621 L8.38511 10.0621 L8.38511 11.7392 L1.67702 11.7392 Z M3.35405 10.0621 L6.70809 10.0621 L6.70809 1.67702 L3.35405 1.67702 L3.35405 10.0621 Z"
         id=" path5069"
         style="fill:#000000;fill-rule:nonzero;stroke:none" />
      <path
         transform="translate(11.7392, 34.9355)"
         d="M0 11.7392 L0 0 L10.0621 0 L10.0621 1.67702 L3.35405 1.67702 L3.35405 5.03107 L6.70809 5.03107 L6.70809 6.70809 L3.35405 6.70809 L3.35405 11.7392 L0 11.7392 Z"
         id=" path5071"
         style="fill:#000000;fill-rule:nonzero;stroke:none" />
      <path
         transform="translate(32.0127, 34.9355)"
         d="M0 11.7392 L0 0 L10.0621 0 L10.0621 1.67702 L3.35405 1.67702 L3.35405 5.03107 L6.70809 5.03107 L6.70809 6.70809 L3.35405 6.70809 L3.35405 11.7392 L0 11.7392 Z"
         id=" path5073"
         style="fill:#000000;fill-rule:nonzero;stroke:none" />
      <path
         transform="translate(43.7519, 34.9355)"
         d="M0 11.7392 L0 0 L8.38512 0 L8.38512 1.67702 L10.0621 1.67702 L10.0621 5.03107 L8.38512 5.03107 L8.38512 6.70809 L6.70809 6.70809 L6.70809 8.38512 L8.38512 8.38512 L8.38512 10.0621 L10.0621 10.0621 L10.0621 11.7392 L6.70809 11.7392 L6.70809 10.0621 L5.03107 10.0621 L5.03107 8.38512 L3.35405 8.38512 L3.35405 11.7392 L0 11.7392 Z M3.35405 5.03107 L6.70809 5.03107 L6.70809 1.67702 L3.35405 1.67702 L3.35405 5.03107 Z"
         id=" path5075"
         style="fill:#000000;fill-rule:nonzero;stroke:none" />
      <path
         transform="translate(55.4911, 34.9355)"
         d="M10.0621 0 L10.0621 1.67702 L3.35405 1.67702 L3.35405 5.03107 L6.70809 5.03107 L6.70809 6.70809 L3.35405 6.70809 L3.35405 10.0621 L10.0621 10.0621 L10.0621 11.7392 L0 11.7392 L0 0 L10.0621 0 Z"
         id=" path5077"
         style="fill:#000000;fill-rule:nonzero;stroke:none" />
      <path
         transform="translate(67.2302, 34.9355)"
         d="M10.0621 0 L10.0621 1.67702 L3.35405 1.67702 L3.35405 5.03107 L6.70809 5.03107 L6.70809 6.70809 L3.35405 6.70809 L3.35405 10.0621 L10.0621 10.0621 L10.0621 11.7392 L0 11.7392 L0 0 L10.0621 0 Z"
         id=" path5079"
         style="fill:#000000;fill-rule:nonzero;stroke:none" />
      <path
         transform="translate(87.5038, 34.9355)"
         d="M1.677 11.7392 L1.677 10.0621 L5.68434e-14 10.0621 L5.68434e-14 8.38512 L3.35404 8.38512 L3.35404 10.0621 L6.70808 10.0621 L6.70808 6.70809 L1.677 6.70809 L1.677 5.03107 L0 5.03107 L0 1.67702 L1.677 1.67702 L1.677 0 L8.38511 0 L8.38511 1.67702 L10.0621 1.67702 L10.0621 3.35405 L6.70808 3.35405 L6.70808 1.67702 L3.35404 1.67702 L3.35404 5.03107 L8.38511 5.03107 L8.38511 6.70809 L10.0621 6.70809 L10.0621 10.0621 L8.38511 10.0621 L8.38511 11.7392 L1.677 11.7392 Z"
         id=" path5081"
         style="fill:#000000;fill-rule:nonzero;stroke:none" />
      <path
         transform="translate(99.2429, 34.9355)"
         d="M1.67703 11.7392 L1.67703 10.0621 L0 10.0621 L0 1.67702 L1.67703 1.67702 L1.67703 0 L8.38511 0 L8.38511 1.67702 L10.0621 1.67702 L10.0621 10.0621 L8.38511 10.0621 L8.38511 11.7392 L1.67703 11.7392 Z M3.35404 10.0621 L6.7081 10.0621 L6.7081 1.67702 L3.35404 1.67702 L3.35404 10.0621 Z"
         id=" path5083"
         style="fill:#000000;fill-rule:nonzero;stroke:none" />
      <path
         transform="translate(110.982, 34.9355)"
         d="M0 11.7392 L0 0 L10.0621 0 L10.0621 1.67702 L3.35404 1.67702 L3.35404 5.03107 L6.70808 5.03107 L6.70808 6.70809 L3.35404 6.70809 L3.35404 11.7392 L0 11.7392 Z"
         id=" path5085"
         style="fill:#000000;fill-rule:nonzero;stroke:none" />
      <path
         transform="translate(122.721, 34.9355)"
         d="M3.35404 11.7392 L3.35404 1.67702 L0 1.67702 L0 0 L10.0621 0 L10.0621 1.67702 L6.7081 1.67702 L6.7081 11.7392 L3.35404 11.7392 Z"
         id=" path5087"
         style="fill:#000000;fill-rule:nonzero;stroke:none" />
      <path
         transform="translate(134.46, 34.9355)"
         d="M11.7392 0 L11.7392 11.7392 L8.38514 11.7392 L8.38514 10.0621 L6.7081 10.0621 L6.7081 8.38512 L5.03107 8.38512 L5.03107 10.0621 L3.35407 10.0621 L3.35407 11.7392 L0 11.7392 L0 0 L3.35407 0 L3.35407 6.70809 L5.03107 6.70809 L5.03107 5.03107 L6.7081 5.03107 L6.7081 6.70809 L8.38514 6.70809 L8.38514 0 L11.7392 0 Z"
         id=" path5089"
         style="fill:#000000;fill-rule:nonzero;stroke:none" />
      <path
         transform="translate(147.877, 34.9355)"
         d="M0 11.7392 L0 3.35405 L1.677 3.35405 L1.677 1.67702 L3.35404 1.67702 L3.35404 0 L6.70808 0 L6.70808 1.67702 L8.38511 1.67702 L8.38511 3.35405 L10.0621 3.35405 L10.0621 11.7392 L6.70808 11.7392 L6.70808 6.70809 L3.35404 6.70809 L3.35404 11.7392 L0 11.7392 Z M3.35404 5.03107 L6.70808 5.03107 L6.70808 3.35405 L3.35404 3.35405 L3.35404 5.03107 Z"
         id=" path5091"
         style="fill:#000000;fill-rule:nonzero;stroke:none" />
      <path
         transform="translate(159.616, 34.9355)"
         d="M0 11.7392 L0 0 L8.38511 0 L8.38511 1.67702 L10.0621 1.67702 L10.0621 5.03107 L8.38511 5.03107 L8.38511 6.70809 L6.7081 6.70809 L6.7081 8.38512 L8.38511 8.38512 L8.38511 10.0621 L10.0621 10.0621 L10.0621 11.7392 L6.7081 11.7392 L6.7081 10.0621 L5.03107 10.0621 L5.03107 8.38512 L3.35407 8.38512 L3.35407 11.7392 L0 11.7392 Z M3.35407 5.03107 L6.7081 5.03107 L6.7081 1.67702 L3.35407 1.67702 L3.35407 5.03107 Z"
         id=" path5093"
         style="fill:#000000;fill-rule:nonzero;stroke:none" />
      <path
         transform="translate(171.355, 34.9355)"
         d="M10.0621 0 L10.0621 1.67702 L3.35404 1.67702 L3.35404 5.03107 L6.70808 5.03107 L6.70808 6.70809 L3.35404 6.70809 L3.35404 10.0621 L10.0621 10.0621 L10.0621 11.7392 L0 11.7392 L0 0 L10.0621 0 Z"
         id=" path5095"
         style="fill:#000000;fill-rule:nonzero;stroke:none" />
      <path
         transform="translate(0.000252283, 65.0718)"
         d="M1.67702 11.7392 L1.67702 10.0621 L0 10.0621 L0 1.67702 L1.67702 1.67702 L1.67702 0 L8.38511 0 L8.38511 1.67702 L10.0621 1.67702 L10.0621 10.0621 L8.38511 10.0621 L8.38511 11.7392 L1.67702 11.7392 Z M3.35405 10.0621 L6.70809 10.0621 L6.70809 5.03107 L5.03107 5.03107 L5.03107 3.35405 L6.70809 3.35405 L6.70809 1.67702 L3.35405 1.67702 L3.35405 5.03107 L5.03107 5.03107 L5.03107 6.70809 L3.35405 6.70809 L3.35405 10.0621 Z"
         id=" path5062"
         style="fill:#47ab23; fill-rule:nonzero;stroke:none;" />
      <path
         transform="translate(11.7394, 65.0718)"
         d="M1.67702 11.7392 L1.67702 10.0621 L0 10.0621 L0 1.67702 L1.67702 1.67702 L1.67702 0 L8.38511 0 L8.38511 1.67702 L10.0621 1.67702 L10.0621 10.0621 L8.38511 10.0621 L8.38511 11.7392 L1.67702 11.7392 Z M3.35405 10.0621 L6.70809 10.0621 L6.70809 5.03107 L5.03107 5.03107 L5.03107 3.35405 L6.70809 3.35405 L6.70809 1.67702 L3.35405 1.67702 L3.35405 5.03107 L5.03107 5.03107 L5.03107 6.70809 L3.35405 6.70809 L3.35405 10.0621 Z"
         id=" path5064"
         style="fill:#47ab23; fill-rule:nonzero;stroke:none;" />
      <path
         transform="translate(23.4786, 65.0718)"
         d="M0 11.7392 L0 10.0621 L3.35405 10.0621 L3.35405 5.03107 L1.67702 5.03107 L1.67702 3.35405 L3.35405 3.35405 L3.35405 0 L6.70809 0 L6.70809 10.0621 L10.0621 10.0621 L10.0621 11.7392 L0 11.7392 Z"
         id=" path5066"
         style="fill:#47ab23; fill-rule:nonzero;stroke:none;" />
      <path
         transform="translate(51.2118, 65.0718)"
         d="M1.67702 11.7392 L1.67702 10.0621 L0 10.0621 L0 0 L3.35405 0 L3.35405 10.0621 L6.70809 10.0621 L6.70809 0 L10.0621 0 L10.0621 10.0621 L8.38511 10.0621 L8.38511 11.7392 L1.67702 11.7392 Z"
         id=" path5055"
         style="fill:#000000;fill-rule:nonzero;stroke:none" />
      <path
         transform="translate(62.951, 65.0718)"
         d="M1.67702 11.7392 L1.67702 10.0621 L0 10.0621 L0 8.38511 L3.35405 8.38511 L3.35405 10.0621 L6.70809 10.0621 L6.70809 6.70809 L1.67702 6.70809 L1.67702 5.03107 L0 5.03107 L0 1.67702 L1.67702 1.67702 L1.67702 0 L8.38511 0 L8.38511 1.67702 L10.0621 1.67702 L10.0621 3.35405 L6.70809 3.35405 L6.70809 1.67702 L3.35405 1.67702 L3.35405 5.03107 L8.38511 5.03107 L8.38511 6.70809 L10.0621 6.70809 L10.0621 10.0621 L8.38511 10.0621 L8.38511 11.7392 L1.67702 11.7392 Z"
         id=" path5057"
         style="fill:#000000;fill-rule:nonzero;stroke:none" />
      <path
         transform="translate(74.6901, 65.0718)"
         d="M10.0621 0 L10.0621 1.67702 L3.35405 1.67702 L3.35405 5.03107 L6.70809 5.03107 L6.70809 6.70809 L3.35405 6.70809 L3.35405 10.0621 L10.0621 10.0621 L10.0621 11.7392 L0 11.7392 L0 0 L10.0621 0 Z"
         id=" path5059"
         style="fill:#000000;fill-rule:nonzero;stroke:none" />
      <path
         transform="translate(0.000252283, 85.171)"
         d="M1.67702 11.7392 L1.67702 10.0621 L0 10.0621 L0 1.67702 L1.67702 1.67702 L1.67702 0 L8.38511 0 L8.38511 1.67702 L10.0621 1.67702 L10.0621 10.0621 L8.38511 10.0621 L8.38511 11.7392 L1.67702 11.7392 Z M3.35405 10.0621 L6.70809 10.0621 L6.70809 5.03107 L5.03107 5.03107 L5.03107 3.35405 L6.70809 3.35405 L6.70809 1.67702 L3.35405 1.67702 L3.35405 5.03107 L5.03107 5.03107 L5.03107 6.70809 L3.35405 6.70809 L3.35405 10.0621 Z"
         id=" path5048"
         style="fill:#47ab23; fill-rule:nonzero;stroke:none;" />
      <path
         transform="translate(11.7394, 85.171)"
         d="M0 11.7392 L0 10.0621 L3.35405 10.0621 L3.35405 5.03107 L1.67702 5.03107 L1.67702 3.35405 L3.35405 3.35405 L3.35405 0 L6.70809 0 L6.70809 10.0621 L10.0621 10.0621 L10.0621 11.7392 L0 11.7392 Z"
         id=" path5050"
         style="fill:#47ab23; fill-rule:nonzero;stroke:none;" />
      <path
         transform="translate(23.4786, 85.171)"
         d="M1.67702 11.7392 L1.67702 10.0621 L0 10.0621 L0 1.67702 L1.67702 1.67702 L1.67702 0 L8.38511 0 L8.38511 1.67702 L10.0621 1.67702 L10.0621 10.0621 L8.38511 10.0621 L8.38511 11.7392 L1.67702 11.7392 Z M3.35405 10.0621 L6.70809 10.0621 L6.70809 5.03107 L5.03107 5.03107 L5.03107 3.35405 L6.70809 3.35405 L6.70809 1.67702 L3.35405 1.67702 L3.35405 5.03107 L5.03107 5.03107 L5.03107 6.70809 L3.35405 6.70809 L3.35405 10.0621 Z"
         id=" path5052"
         style="fill:#47ab23; fill-rule:nonzero;stroke:none;" />
      <path
         transform="translate(51.2115, 85.171)"
         d="M1.67702 11.7392 L1.67702 10.0621 L0 10.0621 L0 8.38511 L3.35405 8.38511 L3.35405 10.0621 L6.70809 10.0621 L6.70809 6.70809 L1.67702 6.70809 L1.67702 5.03107 L0 5.03107 L0 1.67702 L1.67702 1.67702 L1.67702 0 L8.38511 0 L8.38511 1.67702 L10.0621 1.67702 L10.0621 3.35405 L6.70809 3.35405 L6.70809 1.67702 L3.35405 1.67702 L3.35405 5.03107 L8.38511 5.03107 L8.38511 6.70809 L10.0621 6.70809 L10.0621 10.0621 L8.38511 10.0621 L8.38511 11.7392 L1.67702 11.7392 Z"
         id=" path5037"
         style="fill:#000000;fill-rule:nonzero;stroke:none" />
      <path
         transform="translate(62.9507, 85.171)"
         d="M3.35405 11.7392 L3.35405 1.67702 L0 1.67702 L0 0 L10.0621 0 L10.0621 1.67702 L6.70809 1.67702 L6.70809 11.7392 L3.35405 11.7392 Z"
         id=" path5039"
         style="fill:#000000;fill-rule:nonzero;stroke:none" />
      <path
         transform="translate(74.6898, 85.171)"
         d="M1.67702 11.7392 L1.67702 10.0621 L0 10.0621 L0 0 L3.35405 0 L3.35405 10.0621 L6.70809 10.0621 L6.70809 0 L10.0621 0 L10.0621 10.0621 L8.38512 10.0621 L8.38512 11.7392 L1.67702 11.7392 Z"
         id=" path5041"
         style="fill:#000000;fill-rule:nonzero;stroke:none" />
      <path
         transform="translate(86.429, 85.171)"
         d="M0 11.7392 L0 0 L6.7081 0 L6.7081 1.67702 L8.38511 1.67702 L8.38511 3.35405 L10.0621 3.35405 L10.0621 8.38511 L8.38511 8.38511 L8.38511 10.0621 L6.7081 10.0621 L6.7081 11.7392 L0 11.7392 Z M3.35404 10.0621 L5.03107 10.0621 L5.03107 8.38511 L6.7081 8.38511 L6.7081 3.35405 L5.03107 3.35405 L5.03107 1.67702 L3.35404 1.67702 L3.35404 10.0621 Z"
         id=" path5043"
         style="fill:#000000;fill-rule:nonzero;stroke:none" />
      <path
         transform="translate(98.1681, 85.171)"
         d="M3.35407 11.7392 L3.35407 6.70809 L1.67703 6.70809 L1.67703 5.03107 L0 5.03107 L0 0 L3.35407 0 L3.35407 5.03107 L6.7081 5.03107 L6.7081 0 L10.0621 0 L10.0621 5.03107 L8.38514 5.03107 L8.38514 6.70809 L6.7081 6.70809 L6.7081 11.7392 L3.35407 11.7392 Z"
         id=" path5045"
         style="fill:#000000;fill-rule:nonzero;stroke:none" />
      <path
         transform="translate(0.000252283, 105.27)"
         d="M1.67702 11.7392 L1.67702 10.0621 L0 10.0621 L0 1.67702 L1.67702 1.67702 L1.67702 0 L8.38511 0 L8.38511 1.67702 L10.0621 1.67702 L10.0621 10.0621 L8.38511 10.0621 L8.38511 11.7392 L1.67702 11.7392 Z M3.35405 10.0621 L6.70809 10.0621 L6.70809 5.03107 L5.03107 5.03107 L5.03107 3.35405 L6.70809 3.35405 L6.70809 1.67702 L3.35405 1.67702 L3.35405 5.03107 L5.03107 5.03107 L5.03107 6.70809 L3.35405 6.70809 L3.35405 10.0621 Z"
         id=" path5030"
         style="fill:#47ab23; fill-rule:nonzero;stroke:none;" />
      <path
         transform="translate(11.7394, 105.27)"
         d="M0 11.7392 L0 10.0621 L3.35405 10.0621 L3.35405 5.03107 L1.67702 5.03107 L1.67702 3.35405 L3.35405 3.35405 L3.35405 0 L6.70809 0 L6.70809 10.0621 L10.0621 10.0621 L10.0621 11.7392 L0 11.7392 Z"
         id=" path5032"
         style="fill:#47ab23; fill-rule:nonzero;stroke:none;" />
      <path
         transform="translate(23.4786, 105.27)"
         d="M0 11.7392 L0 10.0621 L3.35405 10.0621 L3.35405 5.03107 L1.67702 5.03107 L1.67702 3.35405 L3.35405 3.35405 L3.35405 0 L6.70809 0 L6.70809 10.0621 L10.0621 10.0621 L10.0621 11.7392 L0 11.7392 Z"
         id=" path5034"
         style="fill:#47ab23; fill-rule:nonzero;stroke:none;" />
      <path
         transform="translate(51.2115, 105.27)"
         d="M1.67702 11.7392 L1.67702 10.0621 L0 10.0621 L0 8.38511 L3.35405 8.38511 L3.35405 10.0621 L6.70809 10.0621 L6.70809 6.70809 L1.67702 6.70809 L1.67702 5.03107 L0 5.03107 L0 1.67702 L1.67702 1.67702 L1.67702 0 L8.38511 0 L8.38511 1.67702 L10.0621 1.67702 L10.0621 3.35405 L6.70809 3.35405 L6.70809 1.67702 L3.35405 1.67702 L3.35405 5.03107 L8.38511 5.03107 L8.38511 6.70809 L10.0621 6.70809 L10.0621 10.0621 L8.38511 10.0621 L8.38511 11.7392 L1.67702 11.7392 Z"
         id=" path5019"
         style="fill:#000000;fill-rule:nonzero;stroke:none" />
      <path
         transform="translate(62.9507, 105.27)"
         d="M0 11.7392 L0 0 L3.35405 0 L3.35405 5.03107 L6.70809 5.03107 L6.70809 0 L10.0621 0 L10.0621 11.7392 L6.70809 11.7392 L6.70809 6.70809 L3.35405 6.70809 L3.35405 11.7392 L0 11.7392 Z"
         id=" path5021"
         style="fill:#000000;fill-rule:nonzero;stroke:none" />
      <path
         transform="translate(74.6898, 105.27)"
         d="M0 11.7392 L0 3.35405 L1.67702 3.35405 L1.67702 1.67702 L3.35405 1.67702 L3.35405 0 L6.70809 0 L6.70809 1.67702 L8.38512 1.67702 L8.38512 3.35405 L10.0621 3.35405 L10.0621 11.7392 L6.70809 11.7392 L6.70809 6.70809 L3.35405 6.70809 L3.35405 11.7392 L0 11.7392 Z M3.35405 5.03107 L6.70809 5.03107 L6.70809 3.35405 L3.35405 3.35405 L3.35405 5.03107 Z"
         id=" path5023"
         style="fill:#000000;fill-rule:nonzero;stroke:none" />
      <path
         transform="translate(86.429, 105.27)"
         d="M0 11.7392 L0 0 L8.38511 0 L8.38511 1.67702 L10.0621 1.67702 L10.0621 5.03107 L8.38511 5.03107 L8.38511 6.70809 L6.7081 6.70809 L6.7081 8.38511 L8.38511 8.38511 L8.38511 10.0621 L10.0621 10.0621 L10.0621 11.7392 L6.7081 11.7392 L6.7081 10.0621 L5.03107 10.0621 L5.03107 8.38511 L3.35404 8.38511 L3.35404 11.7392 L0 11.7392 Z M3.35404 5.03107 L6.7081 5.03107 L6.7081 1.67702 L3.35404 1.67702 L3.35404 5.03107 Z"
         id=" path5025"
         style="fill:#000000;fill-rule:nonzero;stroke:none" />
      <path
         transform="translate(98.1681, 105.27)"
         d="M10.0621 0 L10.0621 1.67702 L3.35407 1.67702 L3.35407 5.03107 L6.7081 5.03107 L6.7081 6.70809 L3.35407 6.70809 L3.35407 10.0621 L10.0621 10.0621 L10.0621 11.7392 L0 11.7392 L0 0 L10.0621 0 Z"
         id=" path5027"
         style="fill:#000000;fill-rule:nonzero;stroke:none" />
      <path
         transform="translate(0.000252283, 125.369)"
         d="M0 11.7392 L0 10.0621 L3.35405 10.0621 L3.35405 5.03107 L1.67702 5.03107 L1.67702 3.35405 L3.35405 3.35405 L3.35405 0 L6.70809 0 L6.70809 10.0621 L10.0621 10.0621 L10.0621 11.7392 L0 11.7392 Z"
         id=" path5012"
         style="fill:#47ab23; fill-rule:nonzero;stroke:none;" />
      <path
         transform="translate(11.7394, 125.369)"
         d="M1.67702 11.7392 L1.67702 10.0621 L0 10.0621 L0 1.67702 L1.67702 1.67702 L1.67702 0 L8.38511 0 L8.38511 1.67702 L10.0621 1.67702 L10.0621 10.0621 L8.38511 10.0621 L8.38511 11.7392 L1.67702 11.7392 Z M3.35405 10.0621 L6.70809 10.0621 L6.70809 5.03107 L5.03107 5.03107 L5.03107 3.35405 L6.70809 3.35405 L6.70809 1.67702 L3.35405 1.67702 L3.35405 5.03107 L5.03107 5.03107 L5.03107 6.70809 L3.35405 6.70809 L3.35405 10.0621 Z"
         id=" path5014"
         style="fill:#47ab23; fill-rule:nonzero;stroke:none;" />
      <path
         transform="translate(23.4786, 125.369)"
         d="M1.67702 11.7392 L1.67702 10.0621 L0 10.0621 L0 1.67702 L1.67702 1.67702 L1.67702 0 L8.38511 0 L8.38511 1.67702 L10.0621 1.67702 L10.0621 10.0621 L8.38511 10.0621 L8.38511 11.7392 L1.67702 11.7392 Z M3.35405 10.0621 L6.70809 10.0621 L6.70809 5.03107 L5.03107 5.03107 L5.03107 3.35405 L6.70809 3.35405 L6.70809 1.67702 L3.35405 1.67702 L3.35405 5.03107 L5.03107 5.03107 L5.03107 6.70809 L3.35405 6.70809 L3.35405 10.0621 Z"
         id=" path5016"
         style="fill:#47ab23; fill-rule:nonzero;stroke:none;" />
      <path
         transform="translate(51.2116, 125.369)"
         d="M6.70809 0 L6.70809 1.67702 L5.03107 1.67702 L5.03107 10.0621 L6.70809 10.0621 L6.70809 11.7392 L0 11.7392 L0 10.0621 L1.67702 10.0621 L1.67702 1.67702 L0 1.67702 L0 0 L6.70809 0 Z"
         id=" path4997"
         style="fill:#000000;fill-rule:nonzero;stroke:none" />
      <path
         transform="translate(59.5967, 125.369)"
         d="M0 11.7392 L0 0 L3.35404 0 L3.35404 1.67702 L5.03107 1.67702 L5.03107 3.35405 L6.70809 3.35405 L6.70809 1.67702 L8.38511 1.67702 L8.38511 0 L11.7392 0 L11.7392 11.7392 L8.38511 11.7392 L8.38511 5.03107 L6.70809 5.03107 L6.70809 6.70809 L5.03107 6.70809 L5.03107 5.03107 L3.35404 5.03107 L3.35404 11.7392 L0 11.7392 Z"
         id=" path4999"
         style="fill:#000000;fill-rule:nonzero;stroke:none" />
      <path
         transform="translate(73.0129, 125.369)"
         d="M0 11.7392 L0 0 L8.38511 0 L8.38511 1.67702 L10.0621 1.67702 L10.0621 5.03107 L8.38511 5.03107 L8.38511 6.70809 L3.35405 6.70809 L3.35405 11.7392 L0 11.7392 Z M3.35405 5.03107 L6.70808 5.03107 L6.70808 1.67702 L3.35405 1.67702 L3.35405 5.03107 Z"
         id=" path5001"
         style="fill:#000000;fill-rule:nonzero;stroke:none" />
      <path
         transform="translate(84.752, 125.369)"
         d="M0 11.7392 L0 0 L8.38511 0 L8.38511 1.67702 L10.0621 1.67702 L10.0621 5.03107 L8.38511 5.03107 L8.38511 6.70809 L6.7081 6.70809 L6.7081 8.38511 L8.38511 8.38511 L8.38511 10.0621 L10.0621 10.0621 L10.0621 11.7392 L6.7081 11.7392 L6.7081 10.0621 L5.03107 10.0621 L5.03107 8.38511 L3.35407 8.38511 L3.35407 11.7392 L0 11.7392 Z M3.35407 5.03107 L6.7081 5.03107 L6.7081 1.67702 L3.35407 1.67702 L3.35407 5.03107 Z"
         id=" path5003"
         style="fill:#000000;fill-rule:nonzero;stroke:none" />
      <path
         transform="translate(96.4912, 125.369)"
         d="M1.677 11.7392 L1.677 10.0621 L0 10.0621 L0 1.67702 L1.677 1.67702 L1.677 0 L8.38511 0 L8.38511 1.67702 L10.0621 1.67702 L10.0621 10.0621 L8.38511 10.0621 L8.38511 11.7392 L1.677 11.7392 Z M3.35404 10.0621 L6.70808 10.0621 L6.70808 1.67702 L3.35404 1.67702 L3.35404 10.0621 Z"
         id=" path5005"
         style="fill:#000000;fill-rule:nonzero;stroke:none" />
      <path
         transform="translate(108.23, 125.369)"
         d="M3.35404 11.7392 L3.35404 10.0621 L1.67703 10.0621 L1.67703 8.38511 L0 8.38511 L0 0 L3.35404 0 L3.35404 8.38511 L6.7081 8.38511 L6.7081 0 L10.0621 0 L10.0621 8.38511 L8.38511 8.38511 L8.38511 10.0621 L6.7081 10.0621 L6.7081 11.7392 L3.35404 11.7392 Z"
         id=" path5007"
         style="fill:#000000;fill-rule:nonzero;stroke:none" />
      <path
         transform="translate(119.97, 125.369)"
         d="M10.0621 0 L10.0621 1.67702 L3.35404 1.67702 L3.35404 5.03107 L6.70808 5.03107 L6.70808 6.70809 L3.35404 6.70809 L3.35404 10.0621 L10.0621 10.0621 L10.0621 11.7392 L0 11.7392 L0 0 L10.0621 0 Z"
         id=" path5009"
         style="fill:#000000;fill-rule:nonzero;stroke:none" />
      <path
         transform="translate(87.5033, 14.8364)"
         d="M0 11.7392 L0 0 L10.0621 0 L10.0621 1.67702 L3.35404 1.67702 L3.35404 5.03107 L6.7081 5.03107 L6.7081 6.70809 L3.35404 6.70809 L3.35404 11.7392 L0 11.7392 Z"
         id=" path4980"
         style="fill:#000000;fill-rule:nonzero;stroke:none" />
      <path
         transform="translate(99.2425, 14.8364)"
         d="M0 11.7392 L0 0 L8.38511 0 L8.38511 1.67702 L10.0621 1.67702 L10.0621 5.03107 L8.38511 5.03107 L8.38511 6.70809 L6.70808 6.70809 L6.70808 8.38512 L8.38511 8.38512 L8.38511 10.0621 L10.0621 10.0621 L10.0621 11.7392 L6.70808 11.7392 L6.70808 10.0621 L5.03107 10.0621 L5.03107 8.38512 L3.35404 8.38512 L3.35404 11.7392 L0 11.7392 Z M3.35404 5.03107 L6.70808 5.03107 L6.70808 1.67702 L3.35404 1.67702 L3.35404 5.03107 Z"
         id=" path4982"
         style="fill:#000000;fill-rule:nonzero;stroke:none" />
      <path
         transform="translate(110.982, 14.8364)"
         d="M10.0621 0 L10.0621 1.67702 L3.35404 1.67702 L3.35404 5.03107 L6.7081 5.03107 L6.7081 6.70809 L3.35404 6.70809 L3.35404 10.0621 L10.0621 10.0621 L10.0621 11.7392 L0 11.7392 L0 0 L10.0621 0 Z"
         id=" path4984"
         style="fill:#000000;fill-rule:nonzero;stroke:none" />
      <path
         transform="translate(122.721, 14.8364)"
         d="M10.0621 0 L10.0621 1.67702 L3.35404 1.67702 L3.35404 5.03107 L6.70808 5.03107 L6.70808 6.70809 L3.35404 6.70809 L3.35404 10.0621 L10.0621 10.0621 L10.0621 11.7392 L0 11.7392 L0 0 L10.0621 0 Z"
         id=" path4986"
         style="fill:#000000;fill-rule:nonzero;stroke:none" />
      <path
         transform="translate(134.46, 14.8364)"
         d="M0 11.7392 L0 0 L6.7081 0 L6.7081 1.67702 L8.38511 1.67702 L8.38511 3.35405 L10.0621 3.35405 L10.0621 8.38512 L8.38511 8.38512 L8.38511 10.0621 L6.7081 10.0621 L6.7081 11.7392 L0 11.7392 Z M3.35404 10.0621 L5.03107 10.0621 L5.03107 8.38512 L6.7081 8.38512 L6.7081 3.35405 L5.03107 3.35405 L5.03107 1.67702 L3.35404 1.67702 L3.35404 10.0621 Z"
         id=" path4988"
         style="fill:#000000;fill-rule:nonzero;stroke:none" />
      <path
         transform="translate(146.199, 14.8364)"
         d="M1.677 11.7392 L1.677 10.0621 L0 10.0621 L0 1.67702 L1.677 1.67702 L1.677 0 L8.38511 0 L8.38511 1.67702 L10.0621 1.67702 L10.0621 10.0621 L8.38511 10.0621 L8.38511 11.7392 L1.677 11.7392 Z M3.35404 10.0621 L6.70808 10.0621 L6.70808 1.67702 L3.35404 1.67702 L3.35404 10.0621 Z"
         id=" path4990"
         style="fill:#000000;fill-rule:nonzero;stroke:none" />
      <path
         transform="translate(157.938, 14.8364)"
         d="M0 11.7392 L0 0 L3.35404 0 L3.35404 1.67702 L5.03107 1.67702 L5.03107 3.35405 L6.7081 3.35405 L6.7081 1.67702 L8.38511 1.67702 L8.38511 0 L11.7392 0 L11.7392 11.7392 L8.38511 11.7392 L8.38511 5.03107 L6.7081 5.03107 L6.7081 6.70809 L5.03107 6.70809 L5.03107 5.03107 L3.35404 5.03107 L3.35404 11.7392 L0 11.7392 Z"
         id=" path4992"
         style="fill:#000000;fill-rule:nonzero;stroke:none" />
      <path
         transform="translate(171.354, 14.8364)"
         d="M1.67703 11.7392 L1.67703 10.0621 L0 10.0621 L0 8.38512 L3.35407 8.38512 L3.35407 10.0621 L6.7081 10.0621 L6.7081 6.70809 L1.67703 6.70809 L1.67703 5.03107 L1.13687e-13 5.03107 L1.13687e-13 1.67702 L1.67703 1.67702 L1.67703 0 L8.38514 0 L8.38514 1.67702 L10.0621 1.67702 L10.0621 3.35405 L6.7081 3.35405 L6.7081 1.67702 L3.35407 1.67702 L3.35407 5.03107 L8.38514 5.03107 L8.38514 6.70809 L10.0621 6.70809 L10.0621 10.0621 L8.38514 10.0621 L8.38514 11.7392 L1.67703 11.7392 Z"
         id=" path4994"
         style="fill:#000000;fill-rule:nonzero;stroke:none" />
      <path
         transform="translate(0.0517805, 0)"
         d="M0 26.5755 L0 22.779 L7.59301 22.779 L7.59301 11.3895 L3.79651 11.3895 L3.79651 7.59301 L7.59301 7.59301 L7.59301 0 L15.186 0 L15.186 22.779 L22.779 22.779 L22.779 26.5755 L0 26.5755 Z"
         id=" path4973"
         style="fill:#47ab23; fill-rule:nonzero;stroke:none;" />
      <path
         transform="translate(27.6037, 0)"
         d="M3.79651 26.5755 L3.79651 22.779 L0 22.779 L0 3.79651 L3.79651 3.79651 L3.79651 0 L18.9825 0 L18.9825 3.79651 L22.779 3.79651 L22.779 22.779 L18.9825 22.779 L18.9825 26.5755 L3.79651 26.5755 Z M7.59301 22.779 L15.186 22.779 L15.186 11.3895 L11.3895 11.3895 L11.3895 7.59301 L15.186 7.59301 L15.186 3.79651 L7.59301 3.79651 L7.59301 11.3895 L11.3895 11.3895 L11.3895 15.186 L7.59301 15.186 L7.59301 22.779 Z"
         id=" path4975"
         style="fill:#47ab23; fill-rule:nonzero;stroke:none;" />
      <path
         transform="translate(55.1556, 0)"
         d="M3.79651 26.5755 L3.79651 22.779 L0 22.779 L0 3.79651 L3.79651 3.79651 L3.79651 0 L18.9825 0 L18.9825 3.79651 L22.779 3.79651 L22.779 22.779 L18.9825 22.779 L18.9825 26.5755 L3.79651 26.5755 Z M7.59301 22.779 L15.186 22.779 L15.186 11.3895 L11.3895 11.3895 L11.3895 7.59301 L15.186 7.59301 L15.186 3.79651 L7.59301 3.79651 L7.59301 11.3895 L11.3895 11.3895 L11.3895 15.186 L7.59301 15.186 L7.59301 22.779 Z"
         id=" path4977"
         style="fill:#47ab23; fill-rule:nonzero;stroke:none;" />
      <path
         transform="translate(99.2432, 155.505)"
         d="M1.677 10.0621 L1.677 5.03107 L0 5.03107 L0 3.35405 L1.677 3.35405 L1.677 1.67702 L3.35404 1.67702 L3.35404 0 L8.38511 0 L8.38511 1.67702 L5.03107 1.67702 L5.03107 3.35405 L8.38511 3.35405 L8.38511 5.03107 L5.03107 5.03107 L5.03107 10.0621 L1.677 10.0621 Z"
         id=" path4956"
         style="fill:#000000;fill-rule:nonzero;stroke:none" />
      <path
         transform="translate(109.305, 157.182)"
         d="M10.0621 0 L10.0621 1.67702 L3.35404 1.67702 L3.35404 3.35405 L8.38511 3.35405 L8.38511 5.03107 L10.0621 5.03107 L10.0621 6.70809 L8.38511 6.70809 L8.38511 8.38511 L0 8.38511 L0 6.70809 L6.70808 6.70809 L6.70808 5.03107 L1.677 5.03107 L1.677 3.35405 L0 3.35405 L0 1.67702 L1.677 1.67702 L1.677 0 L10.0621 0 Z"
         id=" path4958"
         style="fill:#000000;fill-rule:nonzero;stroke:none" />
      <path
         transform="translate(121.045, 155.505)"
         d="M1.67703 10.0621 L1.67703 5.03107 L0 5.03107 L0 3.35405 L1.67703 3.35405 L1.67703 1.67702 L3.35404 1.67702 L3.35404 0 L8.38511 0 L8.38511 1.67702 L5.03107 1.67702 L5.03107 3.35405 L8.38511 3.35405 L8.38511 5.03107 L5.03107 5.03107 L5.03107 10.0621 L1.67703 10.0621 Z"
         id=" path4960"
         style="fill:#000000;fill-rule:nonzero;stroke:none" />
      <path
         transform="translate(131.107, 157.182)"
         d="M6.7081 1.67702 L3.35404 1.67702 L3.35404 3.35405 L6.7081 3.35405 L6.7081 1.67702 Z M8.38511 0 L8.38511 1.67702 L10.0621 1.67702 L10.0621 5.03107 L3.35404 5.03107 L3.35404 6.70809 L8.38511 6.70809 L8.38511 8.38511 L1.67703 8.38511 L1.67703 6.70809 L0 6.70809 L0 1.67702 L1.67703 1.67702 L1.67703 0 L8.38511 0 Z"
         id=" path4962"
         style="fill:#000000;fill-rule:nonzero;stroke:none" />
      <path
         transform="translate(142.846, 162.214)"
         d="M0 3.35405 L0 0 L3.35407 0 L3.35407 3.35405 L0 3.35405 Z"
         id=" path4964"
         style="fill:#000000;fill-rule:nonzero;stroke:none" />
      <path
         transform="translate(147.877, 157.182)"
         d="M1.67703 8.38511 L1.67703 6.70809 L0 6.70809 L0 1.67702 L1.67703 1.67702 L1.67703 0 L8.38514 0 L8.38514 1.67702 L10.0621 1.67702 L10.0621 6.70809 L8.38514 6.70809 L8.38514 8.38511 L1.67703 8.38511 Z M3.35407 6.70809 L6.7081 6.70809 L6.7081 1.67702 L3.35407 1.67702 L3.35407 6.70809 Z"
         id=" path4966"
         style="fill:#000000;fill-rule:nonzero;stroke:none" />
      <path
         transform="translate(159.616, 157.182)"
         d="M0 8.38511 L0 0 L8.38511 0 L8.38511 1.67702 L10.0621 1.67702 L10.0621 3.35405 L6.70808 3.35405 L6.70808 1.67702 L3.35404 1.67702 L3.35404 8.38511 L0 8.38511 Z"
         id=" path4968"
         style="fill:#000000;fill-rule:nonzero;stroke:none" />
      <path
         transform="translate(171.355, 157.182)"
         d="M0 10.0621 L0 8.38511 L6.7081 8.38511 L6.7081 6.70809 L1.67703 6.70809 L1.67703 5.03107 L0 5.03107 L0 1.67702 L1.67703 1.67702 L1.67703 0 L10.0621 0 L10.0621 8.38511 L8.38514 8.38511 L8.38514 10.0621 L0 10.0621 Z M3.35407 5.03107 L6.7081 5.03107 L6.7081 1.67702 L3.35407 1.67702 L3.35407 5.03107 Z"
         id=" path4970"
         style="fill:#000000;fill-rule:nonzero;stroke:none" />
      <path
         transform="translate(87.5051, 4.79936)"
         d="M0 1.67702 L0 0 L93.9111 0 L93.9111 1.67702 L0 1.67702 Z"
         id=" path7943"
         style="fill:#000000;fill-rule:nonzero;stroke:none" />
      <path
         transform="translate(0.00100063, 55.0347)"
         d="M0 1.67702 L0 0 L181.415 0 L181.415 1.67702 L0 1.67702 Z"
         id=" path7945"
         style="fill:#000000;fill-rule:nonzero;stroke:none" />
      <path
         transform="translate(0.00100063, 145.468)"
         d="M0 1.67702 L0 0 L181.415 0 L181.415 1.67702 L0 1.67702 Z"
         id=" path7947"
         style="fill:#000000;fill-rule:nonzero;stroke:none" />
    </g>
  </g>
</svg>
